<svg xmlns="http://www.w3.org/2000/svg" xmlns:xlink="http://www.w3.org/1999/xlink" width="500" zoomAndPan="magnify" viewBox="0 0 375 374.999991" height="500" preserveAspectRatio="xMidYMid meet" version="1.2"><defs><clipPath id="adeed2c8ba"><path d="M 60.132812 107.417969 L 315 107.417969 L 315 267.917969 L 60.132812 267.917969 Z M 60.132812 107.417969 "/></clipPath></defs><g id="722f449027"><g clip-rule="nonzero" clip-path="url(#adeed2c8ba)"><path style=" stroke:none;fill-rule:nonzero;fill:#607b6b;fill-opacity:1;" d="M 193.230469 107.523438 C 185.972656 107.789062 181.960938 108.527344 177.808594 110.359375 C 177.332031 110.566406 176.566406 110.875 176.113281 111.042969 C 174.453125 111.660156 173.289062 112.238281 171.953125 113.117188 C 169.382812 114.8125 166.800781 117.125 163.554688 120.660156 C 159.070312 125.535156 154.878906 131.15625 152.320312 135.710938 L 152.039062 136.210938 L 151.675781 136.320312 C 149.058594 137.089844 148.273438 137.324219 147.019531 137.707031 C 138.484375 140.351562 131.816406 143.226562 122.097656 148.449219 C 114.996094 152.265625 108.691406 156.539062 102.25 161.898438 C 99.265625 164.386719 97.679688 165.882812 94.328125 169.363281 C 90.632812 173.210938 88.890625 175.113281 86.988281 177.402344 C 85.246094 179.492188 82.960938 182.511719 81.78125 184.269531 C 81.53125 184.644531 81.082031 185.261719 80.777344 185.652344 C 74.601562 193.570312 69.40625 202.742188 65.519531 212.585938 C 64.105469 216.160156 63.1875 218.988281 62.335938 222.414062 C 60.148438 231.222656 60.132812 238.210938 62.273438 244.785156 C 63.953125 249.945312 67.039062 254.839844 71.089844 258.792969 C 74.386719 262.007812 77.675781 263.992188 81.890625 265.292969 C 87.296875 266.964844 95.039062 267.519531 103.3125 266.832031 C 112.363281 266.070312 123.574219 263.632812 133.636719 260.238281 C 145.625 256.199219 158.78125 249.617188 170.832031 241.636719 C 177.445312 237.253906 182.195312 233.300781 186.761719 228.386719 C 187.457031 227.636719 188.066406 226.996094 188.113281 226.960938 C 188.191406 226.894531 188.386719 227.03125 189.65625 228.046875 C 196.355469 233.386719 200.792969 236.570312 206.789062 240.320312 C 211.921875 243.542969 217.414062 246.554688 223.457031 249.488281 C 228.707031 252.039062 232.367188 253.628906 236.429688 255.152344 C 246.429688 258.875 255.007812 260.527344 262.9375 260.242188 C 273.785156 259.859375 281.6875 257.6875 288.855469 253.132812 C 291.910156 251.191406 294.328125 249.25 296.917969 246.664062 C 299.050781 244.523438 300.636719 242.636719 302.40625 240.117188 C 305.09375 236.289062 308.210938 230.566406 310.363281 225.507812 C 313.054688 219.171875 314.152344 215.132812 314.667969 209.664062 C 314.832031 207.921875 314.859375 206.984375 314.753906 206.367188 C 314.6875 205.945312 314.679688 205.558594 314.707031 204.195312 C 314.863281 196.035156 312.582031 187.09375 308.339844 179.246094 C 306.90625 176.601562 304.730469 173.148438 302.949219 170.699219 C 299.605469 166.089844 294.621094 160.601562 288.902344 155.214844 C 285.167969 151.703125 281.203125 148.050781 279.402344 146.476562 C 275.777344 143.3125 270.265625 138.855469 266.851562 136.339844 C 260.601562 131.730469 254.402344 127.597656 248.34375 124.015625 C 244.246094 121.59375 241.414062 120.039062 237.671875 118.167969 C 232.339844 115.5 227.621094 113.507812 222.984375 111.972656 C 215.199219 109.386719 208.953125 108.148438 201.019531 107.621094 C 199.824219 107.546875 194.515625 107.476562 193.230469 107.523438 Z M 198.984375 110.042969 C 205.050781 110.273438 210.898438 111.128906 216.347656 112.589844 C 221.457031 113.964844 225.890625 115.53125 231.019531 117.792969 C 240.492188 121.960938 251.492188 128.414062 262.324219 136.15625 C 266.292969 138.988281 268.523438 140.699219 272.859375 144.246094 C 277.195312 147.796875 278.78125 149.203125 285.726562 155.675781 C 291.375 160.941406 295.570312 165.363281 299.007812 169.664062 C 302.519531 174.0625 306.019531 179.730469 307.976562 184.1875 C 310.019531 188.851562 311.414062 193.972656 311.945312 198.792969 C 312.523438 203.980469 312.1875 207.992188 310.910156 211.148438 C 309.84375 213.777344 308.515625 215.644531 306.339844 217.59375 C 304.003906 219.675781 302.433594 220.710938 298.933594 222.453125 C 297.96875 222.9375 297.167969 223.308594 297.152344 223.300781 C 297.132812 223.28125 297.421875 223.050781 297.792969 222.789062 C 299.054688 221.875 299.816406 221.230469 300.929688 220.113281 C 302.679688 218.359375 303.507812 217.230469 304.628906 215.085938 C 306 212.441406 306.925781 209.59375 307.308594 206.804688 C 307.433594 205.933594 307.476562 203.382812 307.398438 202.148438 C 307.066406 197.261719 305.664062 191.246094 303.753906 186.523438 C 302.335938 183.019531 300.667969 179.949219 297.101562 174.277344 C 296.378906 173.128906 295.121094 171.085938 294.304688 169.746094 C 292.574219 166.882812 292.203125 166.320312 291.835938 165.945312 C 291.453125 165.554688 291.257812 165.460938 290.824219 165.457031 C 290.527344 165.457031 290.433594 165.476562 290.242188 165.605469 C 289.957031 165.796875 289.796875 166.097656 289.796875 166.464844 C 289.796875 166.691406 289.859375 166.890625 290.101562 167.433594 C 290.890625 169.195312 291.5625 171.839844 292.34375 176.25 C 293.660156 183.632812 294.019531 189.085938 293.546875 194.289062 C 293.273438 197.230469 293.078125 198.0625 291.613281 202.566406 C 290.882812 204.785156 290.492188 205.832031 289.71875 207.617188 C 289.414062 208.320312 289.050781 209.199219 288.902344 209.574219 C 288.730469 210.027344 288.582031 210.3125 288.464844 210.441406 C 288.242188 210.675781 288.117188 210.96875 288.117188 211.238281 C 288.117188 211.511719 288.292969 211.859375 288.820312 212.613281 C 289.558594 213.675781 290.144531 214.949219 290.710938 216.6875 C 291.390625 218.792969 291.550781 219.960938 291.546875 222.6875 C 291.542969 223.847656 291.5625 224.667969 291.597656 224.796875 C 291.640625 224.960938 291.640625 225.019531 291.585938 225.054688 C 291.503906 225.101562 290.78125 225.179688 290.742188 225.140625 C 290.726562 225.125 290.628906 224.652344 290.527344 224.085938 C 289.957031 220.980469 289.128906 218.261719 287.714844 214.824219 C 286.382812 211.601562 283.75 206.492188 281.34375 202.46875 C 277.566406 196.144531 274.21875 191.609375 269.132812 185.9375 C 267.824219 184.480469 264.332031 180.957031 262.867188 179.621094 C 254.429688 171.933594 244.328125 164.5 234.242188 158.554688 C 229.289062 155.636719 226.488281 154.226562 220.566406 151.679688 C 219.597656 151.261719 217.738281 150.4375 216.441406 149.84375 C 212.574219 148.089844 211.570312 147.726562 210.582031 147.726562 L 210.214844 147.726562 L 209.855469 147.25 C 208.851562 145.90625 207.402344 144.289062 205.738281 142.644531 C 202.882812 139.832031 200.390625 138.050781 196.703125 136.1875 C 193.554688 134.597656 190.664062 133.511719 187.417969 132.707031 C 184.839844 132.066406 182.476562 131.742188 179.4375 131.59375 C 177.949219 131.523438 173.828125 131.558594 172.519531 131.65625 C 172.0625 131.6875 171.679688 131.703125 171.660156 131.6875 C 171.644531 131.675781 171.835938 131.601562 172.085938 131.519531 C 173.242188 131.15625 173.660156 131.09375 175.761719 130.996094 C 177.332031 130.925781 178.964844 130.992188 180.828125 131.199219 C 182.972656 131.433594 183.519531 131.398438 184.003906 130.980469 C 184.300781 130.726562 184.46875 130.390625 184.730469 129.515625 C 185.105469 128.265625 185.328125 127.75 185.910156 126.8125 C 187.132812 124.835938 189.683594 122.546875 192.359375 121.035156 C 195.867188 119.050781 199.621094 117.902344 204.0625 117.449219 C 205.210938 117.335938 208.585938 117.285156 209.875 117.367188 C 214.285156 117.652344 219 118.503906 224.042969 119.925781 C 226.453125 120.609375 228.386719 121.257812 231.320312 122.371094 C 232.199219 122.699219 233.035156 122.988281 233.171875 123.003906 C 233.742188 123.070312 234.152344 122.53125 233.898438 122.050781 C 233.726562 121.707031 233.078125 121.261719 231.25 120.230469 C 226.410156 117.503906 220.898438 115.070312 216.410156 113.679688 C 211.230469 112.078125 206.046875 111.347656 199.933594 111.347656 C 194.367188 111.347656 190.074219 111.894531 185.628906 113.164062 C 183.675781 113.726562 181.183594 114.644531 179.679688 115.355469 C 178.226562 116.039062 176.519531 117.097656 175.308594 118.058594 C 173.769531 119.285156 172.105469 121.160156 170.933594 122.992188 C 170.402344 123.828125 169.578125 125.421875 169.230469 126.277344 C 168.386719 128.375 168.007812 130.867188 168.394531 131.757812 C 168.453125 131.886719 168.492188 132 168.484375 132.011719 C 168.4375 132.050781 166.96875 132.207031 166.9375 132.175781 C 166.910156 132.152344 166.894531 131.457031 166.898438 130.632812 C 166.898438 128.945312 166.976562 128.292969 167.332031 126.714844 C 168.542969 121.425781 172.117188 116.496094 176.722656 113.746094 C 180.527344 111.476562 184.96875 110.40625 191.816406 110.097656 C 194.28125 109.988281 196.921875 109.96875 198.984375 110.042969 Z M 166.578125 121.371094 C 165.035156 124.445312 164.191406 128.375 164.371094 131.664062 C 164.402344 132.179688 164.402344 132.617188 164.378906 132.636719 C 164.359375 132.652344 163.976562 132.75 163.527344 132.84375 C 161.34375 133.308594 159.25 133.929688 157.191406 134.71875 C 156.410156 135.015625 155.582031 135.269531 155.539062 135.226562 C 155.519531 135.199219 156.660156 133.402344 157.175781 132.660156 C 159.382812 129.460938 162.195312 125.898438 164.667969 123.15625 C 165.570312 122.152344 166.714844 120.953125 166.742188 120.980469 C 166.753906 120.988281 166.683594 121.167969 166.578125 121.371094 Z M 180.46875 136.8125 C 183.382812 136.933594 187.652344 137.410156 188.929688 137.757812 C 189.207031 137.832031 189.953125 138.007812 190.59375 138.144531 C 194.121094 138.898438 195.722656 139.410156 197.859375 140.476562 C 200.710938 141.902344 203.066406 143.632812 205.453125 146.054688 C 207.210938 147.847656 208.421875 149.382812 209.496094 151.191406 C 210.203125 152.375 211.417969 154.867188 211.988281 156.304688 C 212.109375 156.605469 212.375 157.222656 212.585938 157.683594 C 212.890625 158.371094 213.488281 160.089844 213.433594 160.148438 C 213.421875 160.15625 213.089844 159.992188 212.6875 159.785156 C 209.410156 158.082031 205.164062 157.125 199.148438 156.730469 C 197.761719 156.636719 191.757812 156.636719 190.269531 156.730469 C 185.148438 157.042969 181.097656 157.738281 169.960938 160.222656 C 161.535156 162.097656 156.25 163.96875 150.792969 166.996094 C 147.710938 168.714844 141.976562 172.246094 136.128906 176.042969 C 128.945312 180.707031 121.71875 186.035156 114.496094 191.980469 C 109.429688 196.15625 105.089844 200.234375 102.164062 203.578125 C 99.929688 206.128906 98.015625 208.542969 96.304688 210.957031 C 93.597656 214.789062 91.527344 218.101562 89.203125 222.34375 C 88.417969 223.777344 86.320312 228.070312 85.457031 230.015625 C 84.375 232.449219 83.046875 235.75 82.535156 237.25 C 80.792969 242.386719 80.25 246.453125 80.835938 249.917969 C 81.171875 251.929688 82.132812 254.902344 83.136719 257.078125 C 84.300781 259.585938 85.976562 262.203125 87.226562 263.457031 C 87.519531 263.75 87.75 264 87.738281 264.011719 C 87.707031 264.046875 85.886719 263.71875 84.972656 263.511719 C 82.074219 262.867188 79.335938 261.800781 77.28125 260.519531 C 71.824219 257.117188 67.015625 250.921875 64.785156 244.398438 C 64.085938 242.34375 63.667969 240.46875 63.363281 238.023438 C 63.253906 237.125 63.242188 236.777344 63.238281 234.605469 C 63.238281 232.023438 63.277344 231.394531 63.570312 229.230469 C 64.140625 224.933594 65.398438 220.046875 67.109375 215.4375 C 69.5625 208.835938 73.078125 201.660156 76.683594 195.898438 C 77.007812 195.382812 77.421875 194.667969 77.605469 194.308594 C 78.132812 193.277344 79.496094 191.285156 80.652344 189.855469 C 80.902344 189.546875 81.390625 188.914062 81.730469 188.449219 C 82.078125 187.984375 82.578125 187.347656 82.84375 187.039062 C 83.117188 186.722656 83.589844 186.148438 83.898438 185.761719 C 88.042969 180.578125 93.722656 174.660156 98.976562 170.042969 C 105.855469 164 112.730469 159.28125 121.285156 154.730469 C 122.988281 153.824219 127.34375 151.664062 129.375 150.71875 C 144.152344 143.828125 156.511719 139.609375 167.058594 137.851562 C 172.464844 136.949219 176.414062 136.644531 180.46875 136.8125 Z M 213.027344 151.0625 C 213.394531 151.21875 214.640625 151.777344 215.789062 152.304688 C 216.941406 152.824219 218.859375 153.671875 220.050781 154.1875 C 223.871094 155.832031 226.050781 156.871094 228.605469 158.25 C 240.066406 164.433594 252.761719 173.574219 262.214844 182.449219 C 267.183594 187.113281 272.585938 193.511719 276.25 199.066406 C 278.183594 201.992188 280.003906 205.039062 281.59375 208 C 282.488281 209.660156 284.113281 212.886719 284.671875 214.121094 C 285.835938 216.667969 286.96875 219.820312 287.519531 222.007812 C 287.859375 223.378906 288.203125 225.160156 288.148438 225.296875 C 288.117188 225.378906 287.996094 225.382812 286.90625 225.351562 C 281.316406 225.183594 274.828125 224.609375 271.066406 223.957031 C 267.035156 223.257812 263.136719 222.277344 259.390625 221.03125 C 251.496094 218.402344 244.535156 214.960938 232.433594 207.699219 C 226.285156 204.011719 223.726562 202.398438 218.9375 199.195312 C 215.507812 196.90625 211.609375 194.140625 211.609375 194.003906 C 211.609375 193.960938 211.695312 193.679688 211.804688 193.375 C 211.90625 193.070312 212.226562 192.078125 212.511719 191.164062 C 212.792969 190.253906 213.515625 188.054688 214.105469 186.277344 C 215.355469 182.546875 215.929688 180.664062 216.414062 178.757812 C 217.023438 176.363281 217.191406 175.015625 217.121094 173.191406 C 217.070312 171.921875 217.070312 171.964844 217.085938 169.417969 C 217.097656 167.4375 217.054688 166.449219 216.871094 164.804688 C 216.355469 160.199219 214.785156 155.28125 212.609375 151.433594 C 212.417969 151.097656 212.261719 150.8125 212.261719 150.792969 C 212.261719 150.742188 212.363281 150.773438 213.027344 151.0625 Z M 196.949219 161.546875 C 198.117188 161.628906 199.914062 161.867188 201.238281 162.121094 C 203.382812 162.535156 205.390625 163.191406 207.570312 164.195312 C 211.53125 166.015625 213.785156 168.382812 214.398438 171.367188 C 214.53125 171.976562 214.648438 174.246094 214.589844 174.875 C 214.382812 177.082031 213.695312 179.617188 211.609375 185.84375 C 211.042969 187.53125 210.417969 189.4375 210.222656 190.078125 C 209.714844 191.746094 209.492188 192.414062 209.4375 192.414062 C 209.355469 192.414062 206.878906 190.445312 205.011719 188.890625 C 201.097656 185.632812 198.371094 183.183594 195.433594 180.277344 C 193.925781 178.785156 191.261719 176.039062 190.632812 175.332031 L 190.433594 175.109375 L 190.6875 174.789062 C 191.15625 174.191406 191.777344 173.191406 192.214844 172.335938 C 193.765625 169.289062 195.226562 165.257812 195.757812 162.550781 C 195.851562 162.089844 195.933594 161.65625 195.949219 161.582031 C 195.972656 161.46875 196 161.464844 196.230469 161.484375 C 196.371094 161.503906 196.691406 161.53125 196.949219 161.546875 Z M 191.980469 161.800781 C 191.675781 164.113281 191.074219 166.328125 190.148438 168.496094 C 189.839844 169.230469 188.726562 171.492188 188.324219 172.210938 C 188.140625 172.542969 188.128906 172.550781 188.046875 172.453125 C 188 172.394531 187.59375 171.910156 187.148438 171.375 C 185.675781 169.609375 183.667969 167.058594 181.863281 164.644531 C 180.863281 163.308594 180.6875 163.050781 180.730469 163.007812 C 180.816406 162.917969 185.09375 162.21875 187.175781 161.957031 C 188.761719 161.757812 190.9375 161.546875 191.671875 161.53125 L 192.019531 161.519531 Z M 178.15625 163.730469 C 178.574219 164.554688 182.894531 170.207031 185.324219 173.109375 C 188.667969 177.109375 193.703125 182.292969 197.980469 186.144531 C 200.960938 188.824219 205.054688 192.234375 208.050781 194.539062 C 212.527344 197.972656 219.429688 202.675781 225.546875 206.457031 C 231.910156 210.386719 238.464844 214.214844 242.695312 216.46875 C 244.113281 217.222656 247.105469 218.714844 248.613281 219.421875 C 255.625 222.707031 262.488281 224.929688 269.871094 226.292969 C 274.328125 227.117188 282.472656 227.832031 287.4375 227.839844 C 290.347656 227.84375 292.078125 227.644531 294.230469 227.050781 C 297.558594 226.140625 302.695312 223.597656 305.6875 221.378906 C 307.34375 220.148438 309.613281 218.027344 310.511719 216.859375 C 310.753906 216.550781 310.953125 216.320312 310.964844 216.347656 C 311.003906 216.46875 310.390625 218.460938 309.863281 219.945312 C 307.707031 225.972656 304.433594 232.546875 301.011719 237.699219 C 297.152344 243.519531 292.367188 248.121094 286.539062 251.609375 C 281.332031 254.734375 275.707031 256.523438 268.566406 257.328125 C 265.132812 257.71875 260.890625 257.867188 258.25 257.6875 C 251.078125 257.207031 243.546875 255.324219 234.765625 251.816406 C 228.214844 249.199219 218.964844 244.628906 212.167969 240.652344 C 207.03125 237.644531 201.875 234.230469 197.382812 230.859375 C 185.964844 222.285156 175.554688 212.972656 167.9375 204.511719 C 163.78125 199.902344 159.6875 194.457031 156.855469 189.765625 C 154 185.035156 152.140625 181.332031 150.050781 176.179688 C 149.464844 174.742188 148.730469 172.824219 148.730469 172.730469 C 148.730469 172.605469 152.023438 171.015625 154.269531 170.054688 C 159.394531 167.867188 164.296875 166.378906 171.6875 164.769531 C 173.507812 164.375 177.695312 163.53125 177.875 163.53125 C 178.023438 163.527344 178.0625 163.558594 178.15625 163.730469 Z M 146.9375 175.148438 C 148.3125 178.714844 150.121094 182.796875 151.453125 185.316406 C 152.515625 187.34375 154.074219 190.0625 155.234375 191.925781 C 157.78125 196.03125 161.59375 201.117188 165.058594 205.050781 C 165.488281 205.53125 165.835938 205.957031 165.835938 205.984375 C 165.835938 206.015625 165.710938 206.15625 165.554688 206.296875 C 165.394531 206.441406 164.753906 207.054688 164.125 207.652344 C 160.585938 211.039062 157.726562 213.339844 153.429688 216.289062 C 148.835938 219.433594 142.140625 223.425781 135.644531 226.886719 C 133.929688 227.804688 129.074219 230.238281 127.472656 230.988281 C 119.523438 234.707031 111.75 237.554688 104.777344 239.296875 C 98.234375 240.929688 91.105469 241.988281 86.628906 241.988281 C 85.355469 241.988281 85.34375 241.984375 85.285156 241.347656 C 85.246094 240.941406 85.257812 240.898438 85.5 240.164062 C 86.457031 237.351562 88.53125 233.003906 90.695312 229.292969 C 92.519531 226.167969 95.015625 222.273438 96.769531 219.808594 C 99.777344 215.574219 104.972656 209.339844 110.152344 203.734375 C 113.714844 199.890625 118.378906 195.140625 121.445312 192.246094 C 127.585938 186.457031 135.652344 180.339844 143.058594 175.851562 C 144.597656 174.917969 146.417969 173.898438 146.457031 173.9375 C 146.476562 173.964844 146.695312 174.507812 146.9375 175.148438 Z M 169.027344 209.367188 C 171.375 211.824219 174.203125 214.59375 176.9375 217.125 C 179.628906 219.605469 183.695312 223.175781 185.804688 224.90625 C 186.019531 225.085938 186.195312 225.25 186.195312 225.269531 C 186.195312 225.324219 184.328125 227.351562 183.429688 228.273438 C 179.871094 231.933594 175.332031 235.609375 169.851562 239.273438 C 161.234375 245.035156 151.820312 250.167969 142.621094 254.109375 C 136.835938 256.589844 131.441406 258.480469 125.421875 260.128906 C 116.761719 262.507812 108.859375 263.9375 101.65625 264.441406 C 98.867188 264.632812 95.046875 264.675781 94.742188 264.511719 C 94.394531 264.332031 92.289062 262.910156 91.582031 262.378906 C 89.28125 260.652344 87.632812 258.871094 86.28125 256.644531 C 84.996094 254.519531 84.230469 252.496094 83.949219 250.460938 C 83.859375 249.839844 83.859375 248.164062 83.949219 247.527344 C 84.054688 246.71875 84.261719 245.800781 84.5 245.050781 C 84.707031 244.410156 84.730469 244.367188 84.839844 244.40625 C 85.0625 244.476562 87.652344 244.496094 88.71875 244.4375 C 93.855469 244.140625 100.6875 242.988281 106.515625 241.441406 C 118.910156 238.144531 132.296875 232.160156 147.046875 223.308594 C 155.242188 218.394531 160.46875 214.585938 165.238281 210.050781 C 166.949219 208.421875 167.523438 207.890625 167.566406 207.890625 C 167.59375 207.890625 168.246094 208.558594 169.027344 209.367188 Z M 169.027344 209.367188 "/></g><path style=" stroke:none;fill-rule:nonzero;fill:#607b6b;fill-opacity:1;" d="M 183.671875 149.550781 C 179.964844 149.648438 175.984375 150.054688 171.578125 150.792969 C 165.074219 151.886719 157.527344 154.046875 150.652344 156.792969 C 139.386719 161.300781 126.703125 168.371094 116.722656 175.710938 C 108.882812 181.480469 101.296875 188.476562 93.3125 197.328125 C 89.761719 201.257812 86.710938 205.050781 83.761719 209.191406 C 80.390625 213.925781 76.992188 219.921875 75.285156 224.136719 C 74.558594 225.9375 73.757812 228.515625 73.414062 230.144531 C 72.832031 232.941406 72.804688 236.519531 73.335938 239.574219 C 73.707031 241.699219 74.511719 244.519531 75.320312 246.5 C 75.808594 247.695312 76.113281 248.070312 76.648438 248.113281 C 77.035156 248.144531 77.21875 248.066406 77.519531 247.734375 C 77.949219 247.257812 77.953125 247.210938 77.929688 244.488281 C 77.914062 241.800781 78.0625 238.558594 78.25 237.429688 C 78.578125 235.453125 79.390625 232.59375 80.238281 230.460938 C 81.046875 228.414062 82.742188 224.78125 83.898438 222.597656 C 85.453125 219.671875 88.695312 214.085938 90.429688 211.335938 C 92.402344 208.226562 95.121094 204.246094 96.964844 201.800781 C 101.976562 195.128906 109.136719 187.914062 118.351562 180.246094 C 124.363281 175.246094 129.265625 171.800781 134.53125 168.882812 C 143.226562 164.054688 157.359375 158.742188 170.859375 155.226562 C 176.625 153.722656 182.664062 152.65625 187.203125 152.34375 C 188.609375 152.246094 191.40625 152.21875 192.929688 152.28125 C 195.964844 152.414062 197.554688 152.636719 201.144531 153.433594 C 201.945312 153.605469 202.714844 153.753906 202.851562 153.753906 C 203.332031 153.753906 203.6875 153.4375 203.726562 152.964844 C 203.75 152.601562 203.628906 152.324219 203.339844 152.136719 C 203.074219 151.957031 201.058594 151.472656 198.359375 150.929688 C 194.324219 150.125 191.824219 149.785156 188.832031 149.628906 C 187.679688 149.574219 184.675781 149.523438 183.671875 149.550781 Z M 183.671875 149.550781 "/><path style=" stroke:none;fill-rule:nonzero;fill:#607b6b;fill-opacity:1;" d="M 213.421875 170.585938 C 213.226562 170.667969 213.046875 170.957031 212.644531 171.863281 C 212.207031 172.84375 211.886719 173.425781 211.472656 173.980469 C 209.957031 176.015625 207.585938 177.65625 204.257812 178.96875 C 203.160156 179.40625 202.421875 179.652344 200.515625 180.230469 C 199.683594 180.480469 198.984375 180.695312 198.960938 180.707031 C 198.871094 180.765625 198.078125 180.957031 197.9375 180.957031 C 197.777344 180.957031 197.601562 181.097656 197.601562 181.21875 C 197.601562 181.40625 198.339844 182.023438 199.484375 182.792969 C 199.753906 182.976562 200.429688 183.460938 200.976562 183.867188 C 203.324219 185.621094 204.121094 186.34375 205.851562 188.289062 C 207.335938 189.949219 207.8125 190.378906 208.351562 190.519531 C 208.863281 190.648438 209.382812 190.328125 209.566406 189.769531 C 209.617188 189.628906 209.714844 189.109375 209.789062 188.613281 C 209.96875 187.460938 210.25 186.382812 210.765625 184.894531 C 212.140625 180.945312 212.789062 178.90625 213.070312 177.667969 C 213.554688 175.542969 214.160156 171.933594 214.160156 171.207031 C 214.160156 170.960938 214.132812 170.886719 214.015625 170.75 C 213.851562 170.574219 213.605469 170.503906 213.421875 170.585938 Z M 213.421875 170.585938 "/><path style=" stroke:none;fill-rule:nonzero;fill:#607b6b;fill-opacity:1;" d="M 160.042969 183.082031 C 159.625 183.199219 159.332031 183.714844 159.394531 184.203125 C 159.554688 185.339844 163.65625 193.195312 166.691406 198.171875 C 171.503906 206.046875 177.074219 212.792969 183.292969 218.265625 C 187.726562 222.171875 193.636719 226.425781 199.5 229.945312 C 205.109375 233.3125 210.160156 235.949219 216.089844 238.621094 C 223.84375 242.113281 230.085938 244.464844 236.472656 246.285156 C 243.355469 248.25 251.894531 249.726562 259.90625 250.34375 C 263.554688 250.628906 266.785156 250.648438 269.300781 250.398438 C 272.910156 250.046875 276.515625 249.070312 279.5625 247.613281 C 281.425781 246.722656 283.894531 245.257812 285.703125 243.964844 C 288.667969 241.84375 289.460938 241.113281 290.332031 239.726562 C 290.714844 239.109375 291.835938 236.859375 291.945312 236.476562 C 292.148438 235.78125 291.773438 235.132812 291.285156 235.335938 C 291.199219 235.371094 290.992188 235.515625 290.832031 235.65625 C 290.011719 236.363281 286.941406 238.242188 284.882812 239.304688 C 278.359375 242.679688 270.457031 244.195312 261.238281 243.835938 C 255.800781 243.625 251.105469 243.007812 245.609375 241.792969 C 237.160156 239.925781 228.339844 236.949219 218.367188 232.59375 C 204.953125 226.738281 194.234375 220.042969 183.5625 210.871094 C 176.289062 204.617188 171.207031 199.078125 167.226562 193.066406 C 166.128906 191.410156 165.660156 190.671875 163.636719 187.335938 C 161.214844 183.351562 161.109375 183.210938 160.640625 183.082031 C 160.394531 183.011719 160.28125 183.011719 160.042969 183.082031 Z M 160.042969 183.082031 "/><path style=" stroke:none;fill-rule:nonzero;fill:#607b6b;fill-opacity:1;" d="M 167.644531 212.183594 C 167.550781 212.210938 167.410156 212.304688 167.339844 212.394531 C 167.105469 212.671875 167.109375 212.867188 167.378906 213.945312 C 167.828125 215.773438 167.996094 216.886719 168.046875 218.449219 C 168.179688 222.84375 166.699219 227.191406 163.308594 232.324219 C 161.773438 234.660156 159.925781 237.019531 157.777344 239.414062 C 156.597656 240.722656 153.75 243.578125 152.097656 245.09375 C 150.453125 246.605469 146.921875 249.742188 145.90625 250.59375 C 145.0625 251.304688 144.207031 252.203125 144.234375 252.347656 C 144.246094 252.410156 144.316406 252.445312 144.441406 252.457031 C 144.746094 252.484375 145.472656 252.089844 146.9375 251.101562 C 147.671875 250.613281 149.128906 249.699219 150.171875 249.074219 C 155.269531 246.046875 156.359375 245.34375 160.214844 242.625 C 163.707031 240.160156 172.050781 233.925781 178.050781 229.304688 C 180.875 227.132812 181.902344 226.246094 182.207031 225.726562 C 182.484375 225.265625 182.421875 224.765625 182.054688 224.40625 C 181.960938 224.316406 181.566406 224.085938 181.175781 223.902344 C 179.214844 222.960938 177.960938 222.035156 175.414062 219.632812 C 174.582031 218.851562 171.820312 216.007812 170.125 214.1875 C 168.242188 212.164062 168.105469 212.054688 167.644531 212.183594 Z M 167.644531 212.183594 "/><path style=" stroke:none;fill-rule:nonzero;fill:#607b6b;fill-opacity:1;" d="M 112.460938 241.90625 C 112.265625 241.949219 111.363281 242.140625 110.449219 242.332031 C 107.035156 243.058594 104.644531 243.476562 100.949219 243.996094 C 99.652344 244.175781 97.316406 244.507812 95.761719 244.730469 C 90.886719 245.425781 89.230469 245.589844 85.90625 245.699219 C 85.277344 245.714844 85.070312 245.8125 84.886719 246.167969 C 84.761719 246.402344 84.761719 246.453125 84.785156 247.230469 C 84.839844 248.847656 85.316406 251.371094 85.914062 253.222656 C 86.851562 256.105469 88.335938 258.578125 90.453125 260.777344 C 91.597656 261.964844 92.726562 262.785156 93.222656 262.785156 C 93.554688 262.785156 93.605469 262.675781 94.257812 260.695312 C 95.164062 257.957031 95.769531 256.65625 96.957031 254.859375 C 99.054688 251.6875 101.84375 249.152344 105.699219 246.929688 C 106.175781 246.652344 107.992188 245.726562 109.734375 244.859375 C 111.476562 243.996094 113.074219 243.195312 113.28125 243.070312 C 113.800781 242.765625 113.96875 242.476562 113.8125 242.136719 C 113.675781 241.832031 113.214844 241.753906 112.460938 241.90625 Z M 112.460938 241.90625 "/></g></svg>